<svg width="21" height="24" viewBox="0 0 21 24" fill="none" xmlns="http://www.w3.org/2000/svg">
<path d="M14.966 21V22.875C14.966 23.4963 14.4635 24 13.8435 24H1.12245C0.50253 24 0 23.4963 0 22.875V5.625C0 5.00367 0.50253 4.5 1.12245 4.5H4.4898V18.375C4.4898 19.8225 5.66467 21 7.10884 21H14.966ZM14.966 4.875V0H7.10884C6.48892 0 5.98639 0.503672 5.98639 1.125V18.375C5.98639 18.9963 6.48892 19.5 7.10884 19.5H19.8299C20.4499 19.5 20.9524 18.9963 20.9524 18.375V6H16.0884C15.4711 6 14.966 5.49375 14.966 4.875ZM20.6236 3.42052L17.5396 0.329484C17.3291 0.11852 17.0436 1.55998e-06 16.746 0L16.4626 0V4.5H20.9524V4.21598C20.9524 3.91763 20.8341 3.63149 20.6236 3.42052Z" fill="white"/>
</svg>
